<?xml version="1.0" standalone="no"?>
<!DOCTYPE svg PUBLIC "-//W3C//DTD SVG 20010904//EN"
 "http://www.w3.org/TR/2001/REC-SVG-20010904/DTD/svg10.dtd">
<svg version="1.0" xmlns="http://www.w3.org/2000/svg"
 width="348.000000pt" height="193.000000pt" viewBox="0 0 348.000000 193.000000"
 preserveAspectRatio="xMidYMid meet">

<g transform="translate(0.000000,193.000000) scale(0.100000,-0.100000)"
fill="#000000" stroke="none">
<path d="M1670 1708 c0 -29 -8 -54 -27 -80 l-26 -39 48 -412 c49 -417 58 -468
75 -451 13 13 -29 994 -43 1012 -18 23 -27 12 -27 -30z"/>
<path d="M1853 1692 c-12 -8 -50 -930 -39 -959 17 -44 31 36 72 426 l45 421
-22 29 c-15 20 -20 37 -15 54 4 18 1 27 -10 31 -19 7 -16 7 -31 -2z"/>
<path d="M1450 1398 c0 -29 0 -64 -1 -78 -1 -14 35 -151 80 -305 44 -154 81
-281 81 -282 0 -2 7 -3 15 -3 8 0 15 8 15 19 0 56 -104 561 -126 615 -44 103
-65 114 -64 34z"/>
<path d="M2337 1380 c-48 -53 -73 -100 -197 -365 -131 -282 -151 -335 -125
-337 5 0 66 103 135 228 70 126 148 262 173 303 31 49 45 81 41 95 -3 13 5 34
21 55 26 36 32 65 16 75 -5 4 -34 -21 -64 -54z"/>
<path d="M1254 1398 c13 -67 12 -73 -11 -72 -13 0 -23 -4 -23 -10 0 -6 64
-150 143 -321 97 -209 149 -311 160 -313 11 -2 17 3 17 16 0 23 -247 700 -263
720 -18 23 -29 13 -23 -20z"/>
<path d="M2053 1408 c-18 -24 -154 -661 -143 -672 6 -6 13 -6 18 0 19 21 203
551 196 567 -4 12 -13 15 -31 11 -25 -7 -25 -7 -18 50 7 55 -1 71 -22 44z"/>
<path d="M2841 1294 c-17 -14 -36 -24 -43 -23 -7 1 -18 1 -24 0 -7 0 -99 -103
-206 -228 -409 -478 -413 -483 -390 -483 9 0 725 716 730 729 2 6 -6 14 -17
20 -16 9 -25 6 -50 -15z"/>
<path d="M750 1284 c0 -13 577 -685 602 -700 5 -4 14 -2 18 2 5 5 -85 133
-206 294 -285 377 -283 374 -300 359 -12 -10 -22 -5 -52 24 -40 39 -62 47 -62
21z"/>
<path d="M555 1230 c-4 -14 2 -30 19 -51 14 -17 26 -41 26 -54 0 -18 74 -87
345 -319 189 -163 349 -296 355 -296 5 0 10 3 10 8 0 12 -725 732 -737 732 -6
0 -15 -9 -18 -20z"/>
<path d="M2509 1194 c-8 -10 -28 -23 -45 -30 -25 -10 -70 -69 -203 -264 -154
-225 -179 -270 -152 -270 6 0 318 394 433 546 5 7 3 16 -6 23 -10 9 -17 7 -27
-5z"/>
<path d="M1084 1163 c4 -16 28 -59 55 -98 291 -425 311 -452 311 -412 0 6 -58
115 -129 241 -90 159 -138 234 -158 246 -15 9 -34 24 -42 33 -23 28 -44 22
-37 -10z"/>
<path d="M2609 839 c-384 -333 -376 -326 -363 -339 7 -7 114 68 330 231 175
132 323 245 328 249 5 6 4 15 -3 23 -9 11 -4 22 24 53 36 39 45 64 22 64 -8 0
-160 -126 -338 -281z"/>
<path d="M665 869 c-4 -6 3 -20 15 -31 12 -11 26 -32 32 -47 6 -19 78 -73 253
-191 134 -91 250 -165 257 -165 7 0 13 5 13 12 0 13 -537 433 -554 433 -5 0
-13 -5 -16 -11z"/>
<path d="M2810 783 c-28 -11 -510 -346 -510 -354 0 -22 44 -1 260 122 166 94
234 138 244 157 8 15 23 36 35 46 12 11 21 23 21 28 0 9 -27 10 -50 1z"/>
<path d="M436 741 c-3 -5 22 -35 57 -66 56 -53 92 -72 371 -201 170 -79 313
-141 317 -138 25 15 -9 38 -203 144 -116 63 -252 141 -302 172 -60 38 -98 56
-111 52 -12 -3 -34 5 -54 21 -36 26 -65 32 -75 16z"/>
<path d="M1661 689 c-170 -28 -330 -147 -414 -307 -47 -88 -67 -174 -67 -285
l0 -87 583 2 582 3 3 75 c15 370 -318 660 -687 599z"/>
<path d="M2655 505 c-287 -132 -336 -161 -307 -179 5 -3 173 55 373 128 254
93 365 139 367 150 4 19 -10 20 -55 4 -28 -10 -36 -10 -43 1 -4 8 -6 20 -3 28
3 7 -1 13 -8 12 -8 0 -153 -65 -324 -144z"/>
<path d="M562 461 c-9 -5 -11 -17 -6 -34 7 -31 -2 -33 -52 -15 -40 14 -75 4
-53 -16 21 -19 668 -161 680 -149 6 6 5 13 -3 20 -10 7 -542 203 -551 203 -1
0 -8 -4 -15 -9z"/>
<path d="M2950 420 c-8 -5 -130 -42 -270 -81 -262 -73 -290 -83 -290 -99 0
-16 32 -12 289 36 269 49 289 54 374 91 72 32 76 55 10 51 -27 -1 -59 1 -73 5
-14 3 -32 2 -40 -3z"/>
<path d="M257 248 c-13 -13 -28 -18 -50 -16 -24 2 -33 -1 -35 -16 -2 -10 0
-22 5 -26 10 -10 138 -16 590 -31 337 -11 398 -10 377 11 -7 7 -848 103 -865
99 -2 0 -12 -10 -22 -21z"/>
<path d="M2799 200 c-213 -26 -395 -50 -405 -54 -12 -5 -14 -10 -7 -17 8 -8
159 -4 504 11 272 12 500 23 507 25 6 3 12 11 12 20 0 11 -11 15 -43 15 -30 0
-53 7 -77 25 -22 17 -46 25 -69 24 -20 -1 -210 -23 -422 -49z"/>
<path d="M580 78 c-334 -15 -438 -23 -449 -34 -8 -7 -11 -17 -7 -21 4 -4 123
-9 264 -11 236 -3 276 -1 499 26 133 16 246 33 252 37 24 14 -3 25 -62 24 -34
-1 -258 -11 -497 -21z"/>
<path d="M2385 51 c-9 -15 8 -21 87 -31 93 -12 895 -13 883 -1 -6 5 -212 16
-460 25 -523 19 -502 19 -510 7z"/>
</g>
</svg>
